<?xml version="1.0" encoding="UTF-8" standalone="no"?>
<!-- Created with Inkscape (http://www.inkscape.org/) -->

<svg
   xmlns:dc="http://purl.org/dc/elements/1.1/"
   xmlns:cc="http://creativecommons.org/ns#"
   xmlns:rdf="http://www.w3.org/1999/02/22-rdf-syntax-ns#"
   xmlns:svg="http://www.w3.org/2000/svg"
   xmlns="http://www.w3.org/2000/svg"
   xmlns:xlink="http://www.w3.org/1999/xlink"
   xmlns:sodipodi="http://sodipodi.sourceforge.net/DTD/sodipodi-0.dtd"
   xmlns:inkscape="http://www.inkscape.org/namespaces/inkscape"
   width="744.09448819"
   height="1052.3622047"
   id="svg2"
   version="1.1"
   inkscape:version="0.48.5 r10040"
   sodipodi:docname="icon.svg"
   inkscape:export-filename="W:\Align\unbuilt assets\icon.png"
   inkscape:export-xdpi="400"
   inkscape:export-ydpi="400">
  <defs
     id="defs4">
    <linearGradient
       id="linearGradient3833">
      <stop
         style="stop-color:#000000;stop-opacity:1;"
         offset="0"
         id="stop3835" />
      <stop
         style="stop-color:#000000;stop-opacity:0;"
         offset="1"
         id="stop3837" />
    </linearGradient>
    <radialGradient
       inkscape:collect="always"
       xlink:href="#linearGradient3833"
       id="radialGradient3783"
       cx="330.82812"
       cy="439.32812"
       fx="330.82812"
       fy="439.32812"
       r="155.54688"
       gradientTransform="matrix(-0.01118647,0.62873568,-1.902972,-0.03385776,1170.5581,246.19937)"
       gradientUnits="userSpaceOnUse" />
    <filter
       style="color-interpolation-filters:sRGB;"
       inkscape:label="Drop Shadow"
       id="filter3879">
      <feFlood
         flood-opacity="0.5"
         flood-color="rgb(0,0,0)"
         result="flood"
         id="feFlood3881" />
      <feComposite
         in="flood"
         in2="SourceGraphic"
         operator="in"
         result="composite1"
         id="feComposite3883" />
      <feGaussianBlur
         in="composite"
         stdDeviation="3"
         result="blur"
         id="feGaussianBlur3885" />
      <feOffset
         dx="0"
         dy="8"
         result="offset"
         id="feOffset3887" />
      <feComposite
         in="SourceGraphic"
         in2="offset"
         operator="over"
         result="composite2"
         id="feComposite3889" />
    </filter>
    <filter
       inkscape:label="Inner Shadow"
       inkscape:menu="Shadows and Glows"
       inkscape:menu-tooltip="Adds a colorizable drop shadow inside"
       color-interpolation-filters="sRGB"
       id="filter3999">
      <feGaussianBlur
         stdDeviation="4"
         result="result8"
         id="feGaussianBlur4001" />
      <feOffset
         dx="4"
         dy="4"
         result="result11"
         id="feOffset4003" />
      <feComposite
         result="result6"
         in="SourceGraphic"
         operator="in"
         in2="result11"
         id="feComposite4005" />
      <feFlood
         result="result10"
         in="result6"
         flood-opacity="1"
         flood-color="rgb(0,0,0)"
         id="feFlood4007" />
      <feBlend
         mode="normal"
         in="result6"
         in2="result10"
         id="feBlend4009" />
      <feComposite
         result="result2"
         operator="in"
         in2="SourceGraphic"
         id="feComposite4011" />
    </filter>
    <filter
       style="color-interpolation-filters:sRGB;"
       inkscape:label="Drop Shadow"
       id="filter4049">
      <feFlood
         flood-opacity="0.5"
         flood-color="rgb(0,0,0)"
         result="flood"
         id="feFlood4051" />
      <feComposite
         in="flood"
         in2="SourceGraphic"
         operator="in"
         result="composite1"
         id="feComposite4053" />
      <feGaussianBlur
         in="composite"
         stdDeviation="1"
         result="blur"
         id="feGaussianBlur4055" />
      <feOffset
         dx="0"
         dy="2"
         result="offset"
         id="feOffset4057" />
      <feComposite
         in="SourceGraphic"
         in2="offset"
         operator="over"
         result="composite2"
         id="feComposite4059" />
    </filter>
  </defs>
  <sodipodi:namedview
     id="base"
     pagecolor="#ffffff"
     bordercolor="#666666"
     borderopacity="1.0"
     inkscape:pageopacity="0.0"
     inkscape:pageshadow="2"
     inkscape:zoom="0.7"
     inkscape:cx="-41.782896"
     inkscape:cy="566.47979"
     inkscape:document-units="px"
     inkscape:current-layer="layer1"
     showgrid="false"
     inkscape:window-width="1920"
     inkscape:window-height="1028"
     inkscape:window-x="-8"
     inkscape:window-y="22"
     inkscape:window-maximized="1" />
  <metadata
     id="metadata7">
    <rdf:RDF>
      <cc:Work
         rdf:about="">
        <dc:format>image/svg+xml</dc:format>
        <dc:type
           rdf:resource="http://purl.org/dc/dcmitype/StillImage" />
        <dc:title></dc:title>
      </cc:Work>
    </rdf:RDF>
  </metadata>
  <g
     inkscape:label="Layer 1"
     inkscape:groupmode="layer"
     id="layer1">
    <path
       transform="translate(-121.21831,-95.964492)"
       d="m 607.10167,453.34174 a 155.56349,155.56349 0 1 1 -311.12698,0 155.56349,155.56349 0 1 1 311.12698,0 z"
       sodipodi:ry="155.56349"
       sodipodi:rx="155.56349"
       sodipodi:cy="453.34174"
       sodipodi:cx="451.53818"
       id="path3755"
       style="fill:#ffffff;fill-opacity:1;stroke:none;filter:url(#filter3879)"
       sodipodi:type="arc" />
    <g
       id="g3801"
       transform="matrix(1.1425954,0,0,1.1425954,-47.102094,-52.691645)">
      <path
         sodipodi:type="arc"
         style="fill:#a6ccff;fill-opacity:1;stroke:none"
         id="path3791"
         sodipodi:cx="451.53818"
         sodipodi:cy="453.34174"
         sodipodi:rx="155.56349"
         sodipodi:ry="155.56349"
         d="m 607.10167,453.34174 c 0,85.91534 -69.64815,155.56349 -155.56349,155.56349 -85.91535,0 -155.56349,-69.64815 -155.56349,-155.56349 0,-85.91535 69.64814,-155.5635 155.56349,-155.5635 85.91534,0 155.56349,69.64815 155.56349,155.5635 z"
         transform="matrix(0.73452519,0,0,0.73967975,-1.3462981,25.08)" />
      <path
         transform="matrix(0.73452519,0,0,0.73967975,-1.3462981,22.049542)"
         d="m 607.10167,453.34174 c 0,85.91534 -69.64815,155.56349 -155.56349,155.56349 -85.91535,0 -155.56349,-69.64815 -155.56349,-155.56349 0,-85.91535 69.64814,-155.5635 155.56349,-155.5635 85.91534,0 155.56349,69.64815 155.56349,155.5635 z"
         sodipodi:ry="155.56349"
         sodipodi:rx="155.56349"
         sodipodi:cy="453.34174"
         sodipodi:cx="451.53818"
         id="path3759"
         style="fill:#a6d9ff;fill-opacity:1;stroke:none"
         sodipodi:type="arc" />
    </g>
    <path
       transform="translate(15.152288,25.253813)"
       d="m 363.65491,265.45334 a 9.0913725,9.0913725 0 1 1 -18.18274,0 9.0913725,9.0913725 0 1 1 18.18274,0 z"
       sodipodi:ry="9.0913725"
       sodipodi:rx="9.0913725"
       sodipodi:cy="265.45334"
       sodipodi:cx="354.56354"
       id="path3789"
       style="fill:#a6ccff;fill-opacity:1;stroke:none"
       sodipodi:type="arc" />
    <g
       transform="matrix(1.1425954,0,0,1.1425954,-47.102094,-52.691645)"
       id="g3993"
       style="opacity:0.2;filter:url(#filter3999)">
      <path
         transform="matrix(0.73452519,0,0,0.73967975,-1.3462981,25.08)"
         d="m 607.10167,453.34174 c 0,85.91534 -69.64815,155.56349 -155.56349,155.56349 -85.91535,0 -155.56349,-69.64815 -155.56349,-155.56349 0,-85.91535 69.64814,-155.5635 155.56349,-155.5635 85.91534,0 155.56349,69.64815 155.56349,155.5635 z"
         sodipodi:ry="155.56349"
         sodipodi:rx="155.56349"
         sodipodi:cy="453.34174"
         sodipodi:cx="451.53818"
         id="path3995"
         style="fill:#a6ccff;fill-opacity:1;stroke:none"
         sodipodi:type="arc" />
      <path
         sodipodi:type="arc"
         style="fill:#a6d9ff;fill-opacity:1;stroke:none"
         id="path3997"
         sodipodi:cx="451.53818"
         sodipodi:cy="453.34174"
         sodipodi:rx="155.56349"
         sodipodi:ry="155.56349"
         d="m 607.10167,453.34174 c 0,85.91534 -69.64815,155.56349 -155.56349,155.56349 -85.91535,0 -155.56349,-69.64815 -155.56349,-155.56349 0,-85.91535 69.64814,-155.5635 155.56349,-155.5635 85.91534,0 155.56349,69.64815 155.56349,155.5635 z"
         transform="matrix(0.73452519,0,0,0.73967975,-1.3462981,22.049542)" />
    </g>
    <path
       transform="matrix(1.561813,0,0,1.561813,-188.88592,-126.63691)"
       d="m 363.65491,265.45334 a 9.0913725,9.0913725 0 1 1 -18.18274,0 9.0913725,9.0913725 0 1 1 18.18274,0 z"
       sodipodi:ry="9.0913725"
       sodipodi:rx="9.0913725"
       sodipodi:cy="265.45334"
       sodipodi:cx="354.56354"
       id="path3799"
       style="fill:#a6ccff;fill-opacity:1;stroke:none"
       sodipodi:type="arc" />
    <g
       transform="matrix(1.1425954,0,0,1.1425954,-47.102094,-52.691645)"
       id="g3973" />
    <path
       sodipodi:type="arc"
       style="fill:#ffffff;fill-opacity:1;stroke:none"
       id="path3777"
       sodipodi:cx="354.56354"
       sodipodi:cy="265.45334"
       sodipodi:rx="9.0913725"
       sodipodi:ry="9.0913725"
       d="m 363.65491,265.45334 a 9.0913725,9.0913725 0 1 1 -18.18274,0 9.0913725,9.0913725 0 1 1 18.18274,0 z"
       transform="matrix(1.561813,0,0,1.561813,-189.30426,-131.09923)" />
    <g
       transform="matrix(1.1665486,0,0,1.1665486,-48.002025,-65.446938)"
       id="g3793">
      <path
         transform="matrix(0.25686683,0,0,0.2586694,208.6297,248.02144)"
         d="m 607.10167,453.34174 c 0,85.91534 -69.64815,155.56349 -155.56349,155.56349 -85.91535,0 -155.56349,-69.64815 -155.56349,-155.56349 0,-85.91535 69.64814,-155.5635 155.56349,-155.5635 85.91534,0 155.56349,69.64815 155.56349,155.5635 z"
         sodipodi:ry="155.56349"
         sodipodi:rx="155.56349"
         sodipodi:cy="453.34174"
         sodipodi:cx="451.53818"
         id="path3795"
         style="fill:#a6ccff;fill-opacity:1;stroke:none"
         sodipodi:type="arc" />
      <path
         sodipodi:type="star"
         style="fill:#a6ccff;fill-opacity:1;stroke:none"
         id="path3797"
         sodipodi:sides="3"
         sodipodi:cx="357.59399"
         sodipodi:cy="346.26556"
         sodipodi:r1="31.31473"
         sodipodi:r2="15.657364"
         sodipodi:arg1="1.5707963"
         sodipodi:arg2="2.6179939"
         inkscape:flatsided="false"
         inkscape:rounded="0"
         inkscape:randomized="0"
         d="m 357.59399,377.58029 -13.55967,-23.48604 -13.55968,-23.48605 27.11935,0 27.11936,0 -13.55968,23.48605 z"
         inkscape:transform-center-y="7.8286822"
         transform="translate(0,1.298899)" />
    </g>
    <g
       id="g3779"
       transform="matrix(1.1665486,0,0,1.1665486,-48.359168,-67.232652)"
       style="filter:url(#filter4049)">
      <path
         sodipodi:type="arc"
         style="fill:#ffffff;fill-opacity:1;stroke:none"
         id="path3763"
         sodipodi:cx="451.53818"
         sodipodi:cy="453.34174"
         sodipodi:rx="155.56349"
         sodipodi:ry="155.56349"
         d="m 607.10167,453.34174 c 0,85.91534 -69.64815,155.56349 -155.56349,155.56349 -85.91535,0 -155.56349,-69.64815 -155.56349,-155.56349 0,-85.91535 69.64814,-155.5635 155.56349,-155.5635 85.91534,0 155.56349,69.64815 155.56349,155.5635 z"
         transform="matrix(0.25686683,0,0,0.2586694,208.6297,246.72254)" />
      <path
         inkscape:transform-center-y="7.8286822"
         d="m 357.59399,377.58029 -13.55967,-23.48604 -13.55968,-23.48605 27.11935,0 27.11936,0 -13.55968,23.48605 z"
         inkscape:randomized="0"
         inkscape:rounded="0"
         inkscape:flatsided="false"
         sodipodi:arg2="2.6179939"
         sodipodi:arg1="1.5707963"
         sodipodi:r2="15.657364"
         sodipodi:r1="31.31473"
         sodipodi:cy="346.26556"
         sodipodi:cx="357.59399"
         sodipodi:sides="3"
         id="path3771"
         style="fill:#ffffff;fill-opacity:1;stroke:none"
         sodipodi:type="star" />
    </g>
  </g>
</svg>
